<svg xmlns="http://www.w3.org/2000/svg" viewBox="0 0 64 52"><defs><style>.cls-1{fill:#363f40;}</style></defs><title>car</title><g id="Layer_2" data-name="Layer 2"><g id="icons"><polygon class="cls-1" points="42 41 22 41 22 39 40 39 40 2 2 2 2 39 6 39 6 41 0 41 0 0 42 0 42 41"/><rect class="cls-1" x="8" y="27" width="30" height="2"/><rect class="cls-1" x="22" y="31" width="16" height="2"/><path class="cls-1" d="M26,22a1,1,0,0,1-1-1V18H1V16H26a1,1,0,0,1,1,1v2l6.37-5L27,9v2a1,1,0,0,1-1,1H1V10H25V7a1,1,0,0,1,1.61-.79l9,7a1,1,0,0,1,0,1.58l-9,7A1,1,0,0,1,26,22Z"/><path class="cls-1" d="M6,35H0V27H6ZM2,33H4V29H2Z"/><path class="cls-1" d="M64,37H58V31h6Zm-4-2h2V33H60Z"/><path class="cls-1" d="M14,52a7,7,0,1,1,7-7A7,7,0,0,1,14,52Zm0-12a5,5,0,1,0,5,5A5,5,0,0,0,14,40Z"/><circle class="cls-1" cx="14" cy="45" r="2"/><path class="cls-1" d="M52,52a7,7,0,1,1,7-7A7,7,0,0,1,52,52Zm0-12a5,5,0,1,0,5,5A5,5,0,0,0,52,40Z"/><circle class="cls-1" cx="52" cy="45" r="2"/><polygon class="cls-1" points="64 41 60 41 60 39 62 39 62 28.29 53.45 15 42 15 42 39 44 39 44 41 40 41 40 13 54.55 13 64 27.71 64 41"/><rect class="cls-1" x="45" y="27" width="18" height="2"/><polygon class="cls-1" points="46 37 44 37 44 17 56 17 56 19 46 19 46 37"/><rect class="cls-1" x="48" y="31" width="2" height="2"/><rect class="cls-1" y="50" width="64" height="2"/><rect class="cls-1" x="19" y="20" width="2" height="2"/><rect class="cls-1" x="15" y="20" width="2" height="2"/><rect class="cls-1" x="11" y="20" width="2" height="2"/></g></g></svg>