<svg xmlns="http://www.w3.org/2000/svg" viewBox="0 0 64 52"><defs><style>.cls-1{fill:#363f40}</style></defs><title>car</title><g id="Layer_2" data-name="Layer 2"><g id="icons"><path class="cls-1" d="M42 41H22v-2h18V2H2v37h4v2H0V0h42v41z"/><path class="cls-1" d="M8 27h30v2H8zm14 4h16v2H22zm4-9a1 1 0 0 1-1-1v-3H1v-2h25a1 1 0 0 1 1 1v2l6.37-5L27 9v2a1 1 0 0 1-1 1H1v-2h24V7a1 1 0 0 1 1.61-.79l9 7a1 1 0 0 1 0 1.58l-9 7A1 1 0 0 1 26 22zM6 35H0v-8h6zm-4-2h2v-4H2zm62 4h-6v-6h6zm-4-2h2v-2h-2zM14 52a7 7 0 1 1 7-7 7 7 0 0 1-7 7zm0-12a5 5 0 1 0 5 5 5 5 0 0 0-5-5z"/><circle class="cls-1" cx="14" cy="45" r="2"/><path class="cls-1" d="M52 52a7 7 0 1 1 7-7 7 7 0 0 1-7 7zm0-12a5 5 0 1 0 5 5 5 5 0 0 0-5-5z"/><circle class="cls-1" cx="52" cy="45" r="2"/><path class="cls-1" d="M64 41h-4v-2h2V28.29L53.45 15H42v24h2v2h-4V13h14.55L64 27.71V41z"/><path class="cls-1" d="M45 27h18v2H45z"/><path class="cls-1" d="M46 37h-2V17h12v2H46v18z"/><path class="cls-1" d="M48 31h2v2h-2zM0 50h64v2H0zm19-30h2v2h-2zm-4 0h2v2h-2zm-4 0h2v2h-2z"/></g></g></svg>