<svg xmlns="http://www.w3.org/2000/svg" viewBox="0 0 64 60"><defs><style>.cls-1{fill:#363f40;}</style></defs><title>factory</title><g id="Layer_2" data-name="Layer 2"><g id="icons"><path class="cls-1" d="M64,60H52V58H62V54a51.28,51.28,0,0,0-2.36-6.27C57.26,41.94,54,34,54,30V20H38V30c0,2.59-2.75,11.32-3.07,12.3L33,41.7c.83-2.6,3-9.77,3-11.7V18H56V30c0,3.61,3.18,11.33,5.49,17C63.19,51.09,64,53.11,64,54Z"/><rect class="cls-1" x="37" y="29" width="18" height="2"/><polygon class="cls-1" points="26 41 24 41 24 34 14 34 14 41 12 41 12 32 26 32 26 41"/><polygon class="cls-1" points="34 60 0 60 0 44 50 44 50 52 48 52 48 46 2 46 2 58 34 58 34 60"/><rect class="cls-1" x="16" y="24" width="2" height="9"/><rect class="cls-1" x="20" y="28" width="2" height="5"/><polygon class="cls-1" points="2 42 0 42 0 8 10 8 10 28.59 13.71 32.29 12.29 33.71 8 29.41 8 10 2 10 2 42"/><path class="cls-1" d="M31,46H6V40H31ZM8,44H29V42H8Z"/><rect class="cls-1" x="16" y="36" width="2" height="2"/><rect class="cls-1" x="20" y="36" width="2" height="2"/><rect class="cls-1" x="4" y="22" width="2" height="2"/><rect class="cls-1" x="4" y="26" width="2" height="2"/><rect class="cls-1" x="4" y="30" width="2" height="2"/><rect class="cls-1" x="1" y="12" width="8" height="2"/><rect class="cls-1" x="1" y="16" width="8" height="2"/><rect class="cls-1" x="37" y="22" width="18" height="2"/><rect class="cls-1" x="52" y="54" width="11" height="2"/><rect class="cls-1" x="4" y="54" width="6" height="2"/><rect class="cls-1" x="12" y="54" width="6" height="2"/><rect class="cls-1" x="20" y="54" width="6" height="2"/><rect class="cls-1" x="28" y="54" width="6" height="2"/><path class="cls-1" d="M26,6c-2.13,0-3.66-2.19-3.83-2.44C21.9,3.16,20.91,2,20,2s-1.95,1.23-2.17,1.56S16.13,6,14,6s-3.66-2.19-3.83-2.44C9.9,3.16,8.91,2,8,2V0c2.13,0,3.66,2.19,3.83,2.44C12.1,2.84,13.09,4,14,4s1.95-1.23,2.17-1.56S17.87,0,20,0s3.66,2.19,3.83,2.44C24.1,2.84,25.09,4,26,4s1.95-1.23,2.17-1.56S29.87,0,32,0V2c-.93,0-1.95,1.23-2.17,1.56S28.13,6,26,6Z"/><path class="cls-1" d="M6,4H4A4,4,0,0,1,8,0V2A2,2,0,0,0,6,4Z"/><rect class="cls-1" x="4" y="4" width="2" height="2"/><path class="cls-1" d="M58,16c-2.13,0-3.66-2.19-3.83-2.44C53.9,13.16,52.91,12,52,12V10c2.13,0,3.66,2.19,3.83,2.44C56.1,12.84,57.09,14,58,14s1.95-1.23,2.17-1.56S61.87,10,64,10v2c-.93,0-1.95,1.23-2.17,1.56S60.13,16,58,16Z"/><path class="cls-1" d="M50,14H48a4,4,0,0,1,4-4v2A2,2,0,0,0,50,14Z"/><rect class="cls-1" x="48" y="14" width="2" height="2"/><rect class="cls-1" x="46" y="10" width="6" height="2"/><path class="cls-1" d="M44,14H42a4,4,0,0,1,4-4v2A2,2,0,0,0,44,14Z"/><rect class="cls-1" x="42" y="14" width="2" height="2"/><path class="cls-1" d="M50,60H36V54H50ZM38,58H48V56H38Z"/></g></g></svg>