<svg xmlns="http://www.w3.org/2000/svg" viewBox="0 0 64 60"><defs><style>.cls-1{fill:#363f40}</style></defs><title>factory</title><g id="Layer_2" data-name="Layer 2"><g id="icons"><path class="cls-1" d="M64 60H52v-2h10v-4a51.28 51.28 0 0 0-2.36-6.27C57.26 41.94 54 34 54 30V20H38v10c0 2.59-2.75 11.32-3.07 12.3L33 41.7c.83-2.6 3-9.77 3-11.7V18h20v12c0 3.61 3.18 11.33 5.49 17 1.7 4.09 2.51 6.11 2.51 7z"/><path class="cls-1" d="M37 29h18v2H37zM26 41h-2v-7H14v7h-2v-9h14v9zm8 19H0V44h50v8h-2v-6H2v12h32v2z"/><path class="cls-1" d="M16 24h2v9h-2zm4 4h2v5h-2zM2 42H0V8h10v20.59l3.71 3.7-1.42 1.42L8 29.41V10H2v32zm29 4H6v-6h25zM8 44h21v-2H8zm8-8h2v2h-2zm4 0h2v2h-2z"/><path class="cls-1" d="M4 22h2v2H4zm0 4h2v2H4zm0 4h2v2H4zM1 12h8v2H1zm0 4h8v2H1zm36 6h18v2H37zm15 32h11v2H52zM4 54h6v2H4zm8 0h6v2h-6zm8 0h6v2h-6zm8 0h6v2h-6zM26 6c-2.13 0-3.66-2.19-3.83-2.44C21.9 3.16 20.91 2 20 2s-1.95 1.23-2.17 1.56S16.13 6 14 6s-3.66-2.19-3.83-2.44C9.9 3.16 8.91 2 8 2V0c2.13 0 3.66 2.19 3.83 2.44C12.1 2.84 13.09 4 14 4s1.95-1.23 2.17-1.56S17.87 0 20 0s3.66 2.19 3.83 2.44C24.1 2.84 25.09 4 26 4s1.95-1.23 2.17-1.56S29.87 0 32 0v2c-.93 0-1.95 1.23-2.17 1.56S28.13 6 26 6zM6 4H4a4 4 0 0 1 4-4v2a2 2 0 0 0-2 2zM4 4h2v2H4zm54 12c-2.13 0-3.66-2.19-3.83-2.44C53.9 13.16 52.91 12 52 12v-2c2.13 0 3.66 2.19 3.83 2.44.27.4 1.26 1.56 2.17 1.56s1.95-1.23 2.17-1.56S61.87 10 64 10v2c-.93 0-1.95 1.23-2.17 1.56S60.13 16 58 16zm-8-2h-2a4 4 0 0 1 4-4v2a2 2 0 0 0-2 2zm-2 0h2v2h-2z"/><path class="cls-1" d="M46 10h6v2h-6zm-2 4h-2a4 4 0 0 1 4-4v2a2 2 0 0 0-2 2zm-2 0h2v2h-2zm8 46H36v-6h14zm-12-2h10v-2H38z"/></g></g></svg>