<svg xmlns="http://www.w3.org/2000/svg" viewBox="0 0 64 64"><defs><style>.cls-1{fill:#363f40}</style></defs><title>gear_icon</title><g id="Layer_2" data-name="Layer 2"><g id="icons"><path class="cls-1" d="M35 52.75a1 1 0 0 1-1-.92 2 2 0 0 0-4 0 1 1 0 0 1-1.14.91 21 21 0 0 1-9.32-3.85 1 1 0 0 1-.12-1.5 2 2 0 0 0-2.82-2.82 1 1 0 0 1-1.5-.12 21 21 0 0 1-3.85-9.32 1 1 0 0 1 .91-1.13 2 2 0 0 0 0-4 1 1 0 0 1-.91-1.14 21 21 0 0 1 3.85-9.32 1 1 0 0 1 1.5-.12 2 2 0 0 0 2.82-2.82 1 1 0 0 1 .12-1.5 21 21 0 0 1 9.32-3.85 1 1 0 0 1 .77.21 1 1 0 0 1 .38.7 2 2 0 0 0 4 0 1 1 0 0 1 .38-.7 1 1 0 0 1 .77-.21 21 21 0 0 1 9.32 3.85 1 1 0 0 1 .12 1.5 2 2 0 0 0 2.82 2.82 1 1 0 0 1 1.5.12 21 21 0 0 1 3.85 9.32 1 1 0 0 1-.93 1.14 2 2 0 0 0 0 4 1 1 0 0 1 .91 1.14 21 21 0 0 1-3.85 9.32 1 1 0 0 1-1.5.12 2 2 0 0 0-2.82 2.82 1 1 0 0 1-.12 1.5 21 21 0 0 1-9.32 3.85zM32 48a4 4 0 0 1 3.73 2.61 19 19 0 0 0 6.72-2.76A4 4 0 0 1 42 46a4 4 0 0 1 4-4 4 4 0 0 1 1.84.45 19 19 0 0 0 2.76-6.72 4 4 0 0 1 0-7.47 19 19 0 0 0-2.76-6.72A4 4 0 0 1 46 22a4 4 0 0 1-4-4 4 4 0 0 1 .45-1.84 19 19 0 0 0-6.72-2.76 4 4 0 0 1-7.47 0 19 19 0 0 0-6.72 2.76A4 4 0 0 1 22 18a4 4 0 0 1-4 4 4 4 0 0 1-1.84-.45 19 19 0 0 0-2.76 6.72 4 4 0 0 1 0 7.47 19 19 0 0 0 2.76 6.72A4 4 0 0 1 18 42a4 4 0 0 1 4 4 4 4 0 0 1-.45 1.84 19 19 0 0 0 6.72 2.76A4 4 0 0 1 32 48z"/><path class="cls-1" d="M32 42a10 10 0 1 1 10-10 10 10 0 0 1-10 10zm0-18a8 8 0 1 0 8 8 8 8 0 0 0-8-8zm15-9h2v2h-2zm0 32h2v2h-2zM31 9h2v2h-2zm0 44h2v2h-2zM15 15h2v2h-2zM9 31h2v2H9zm44 0h2v2h-2zM15 47h2v2h-2z"/><path class="cls-1" d="M32 60a28 28 0 1 1 28-28 28 28 0 0 1-28 28zm0-54a26 26 0 1 0 26 26A26 26 0 0 0 32 6z"/><path class="cls-1" d="M32 64a32 32 0 1 1 32-32 32 32 0 0 1-32 32zm0-62a30 30 0 1 0 30 30A30 30 0 0 0 32 2z"/></g></g></svg>