<svg id="Layer_1" xmlns="http://www.w3.org/2000/svg" viewBox="0 0 271.6 279.2"><style>.st0,.st1{fill:#565656;stroke:#231f20;stroke-width:2}.st1{fill:none}</style><title>Asset 1</title><g id="Layer_2"><g id="Layer_1-2"><path class="st1" d="M172.6 230.1l8 1.5 4.4-11.1 4.2-10.6-22-15.8c1-7.3.9-14.6-.3-21.9l20.9-14.3-9.3-21.5-25.2 4.1c-1-1.4-2.1-2.7-3.3-4-3.7-4-7.7-7.7-12.1-11.1l.2-.9 4.9-25.8-21.6-8.7-15.9 22.2c-.8-.1-16.8-.7-22.8.4L67.8 90.8 46.3 100l4.4 26.8c-5.5 4.3-10.4 9.4-14.5 15.2l-26.3-5-8.7 21.8L16.9 170l6.4 4.6c-.9 6.8-.7 13.7.5 20.4l-.2.7-21 15.8 9.3 21.5 19.6-3.2 8.8-1.4c4.4 5.7 9.6 10.7 15.5 14.8l-4.9 26 21.8 8.7 15.8-22c4.8.6 9.7.8 14.5.4 1-.1 2.3-.3 3.3-.5l7.1 10.2h-.1l6.8 9.9 21.5-9.3-4.1-24.5v-.1c6.2-4.4 11.8-9.6 16.7-15.5l18.4 3.6"/><circle class="st1" cx="95.3" cy="184" r="48.4"/><path class="st1" d="M173.9 122.1l4.7-3.4c4.5 2.1 9.3 3.6 14.2 4.3l.4.3 6.2 18.1 17-1.5 2.2-14.3 1-6.4c4.9-1.8 9.6-4.2 13.8-7.4l16.9 9.3 10.9-13.1-11.6-15.9c1.5-3.2 2.7-6.6 3.6-10 .2-.7.3-1.6.4-2.4l8.6-2.6 8.4-2.4-1.5-17-18-2.7c-1.6-5.3-4-10.3-6.9-15l6.6-12 2.9-5.2-6.7-5.6-6.4-5.4-15.9 11.7c-4.8-2.3-9.9-3.9-15.2-4.8L204.3 1l-17 1.5-2.9 18.5c-1.2.4-2.4.9-3.5 1.3-3.6 1.7-7.1 3.6-10.4 5.8l-.6-.3-16.8-9.2-10.9 13.1 11.7 16c-.3.5-4.3 11.5-4.9 15.9L130.6 69l1.5 17 19.6 3c1.7 4.8 4.1 9.3 7.2 13.4l-9.4 17.1 13.1 10.9 11.3-8.3"/><ellipse transform="rotate(-71.869 201.301 71.046)" class="st1" cx="201.3" cy="71.1" rx="35.2" ry="35.2"/></g></g></svg>