<?xml version="1.0" encoding="utf-8"?>
<!-- Generator: Adobe Illustrator 21.0.2, SVG Export Plug-In . SVG Version: 6.00 Build 0)  -->
<svg version="1.1" id="Layer_1" xmlns="http://www.w3.org/2000/svg" xmlns:xlink="http://www.w3.org/1999/xlink" x="0px" y="0px"
	 viewBox="0 0 271.6 279.2" style="enable-background:new 0 0 271.6 279.2;" xml:space="preserve">
<style type="text/css">
	.st0{fill:#565656;stroke:#231F20;stroke-width:2;}
	.st1{fill:none;stroke:#231F20;stroke-width:2;}
</style>
<title>Asset 1</title>
<g id="Layer_2">
	<g id="Layer_1-2">
		<path class="st0" d="M184.7,219.3"/>
		<path class="st1" d="M172.6,230.1l8,1.5l4.4-11.1l4.2-10.6l-22-15.8c1-7.3,0.9-14.6-0.3-21.9l20.9-14.3l-9.3-21.5l-25.2,4.1
			c-1-1.4-2.1-2.7-3.3-4l0,0c-3.7-4-7.7-7.7-12.1-11.1l0.2-0.9v0l4.9-25.8L121.4,90l-15.9,22.2c-0.8-0.1-16.8-0.7-22.8,0.4
			L67.8,90.8L46.3,100l4.4,26.8c-5.5,4.3-10.4,9.4-14.5,15.2l-26.3-5l-8.7,21.8L16.9,170l6.4,4.6c-0.9,6.8-0.7,13.7,0.5,20.4
			l-0.2,0.7l-21,15.8l9.3,21.5l19.6-3.2l8.8-1.4c4.4,5.7,9.6,10.7,15.5,14.8l-4.9,26l21.8,8.7l15.8-22c4.8,0.6,9.7,0.8,14.5,0.4l0,0
			c1-0.1,2.3-0.3,3.3-0.5l7.1,10.2l-0.1,0l6.8,9.9l21.5-9.3l-4.1-24.5l0-0.1c6.2-4.4,11.8-9.6,16.7-15.5L172.6,230.1"/>
		<circle class="st1" cx="95.3" cy="184" r="48.4"/>
		<path class="st0" d="M246,17.2"/>
		<path class="st1" d="M173.9,122.1l4.7-3.4c4.5,2.1,9.3,3.6,14.2,4.3l0.4,0.3l6.2,18.1l17-1.5l2.2-14.3l0,0l1-6.4
			c4.9-1.8,9.6-4.2,13.8-7.4l16.9,9.3l10.9-13.1l-11.6-15.9c1.5-3.2,2.7-6.6,3.6-10l0,0c0.2-0.7,0.3-1.6,0.4-2.4
			c0,0,8.6-2.6,8.6-2.6l8.4-2.4l-1.5-17L251.1,55l0,0v0c-1.6-5.3-4-10.3-6.9-15l6.6-12v0l2.9-5.2l-6.7-5.6l-6.4-5.4l-15.9,11.7
			c-4.8-2.3-9.9-3.9-15.2-4.8l-5.2-17.7l-17,1.5L184.4,21c-1.2,0.4-2.4,0.9-3.5,1.3l0,0c-3.6,1.7-7.1,3.6-10.4,5.8
			c0,0-0.6-0.3-0.6-0.3l-16.8-9.2l-10.9,13.1l11.7,16c-0.3,0.5-4.3,11.5-4.9,15.9L130.6,69l1.5,17l19.6,3c1.7,4.8,4.1,9.3,7.2,13.4
			l-9.4,17.1l13.1,10.9L173.9,122.1"/>
		
			<ellipse transform="matrix(0.3112 -0.9504 0.9504 0.3112 71.1446 240.2573)" class="st1" cx="201.3" cy="71.1" rx="35.2" ry="35.2"/>
	</g>
</g>
</svg>
