<svg xmlns="http://www.w3.org/2000/svg" viewBox="0 0 64 64"><defs><style>.cls-1{fill:#363f40;}</style></defs><title>gear_icon</title><g id="Layer_2" data-name="Layer 2"><g id="icons"><path class="cls-1" d="M35,52.75a1,1,0,0,1-1-.92,2,2,0,0,0-4,0,1,1,0,0,1-1.14.91,21,21,0,0,1-9.32-3.85,1,1,0,0,1-.12-1.5,2,2,0,0,0-2.82-2.82,1,1,0,0,1-1.5-.12,21,21,0,0,1-3.85-9.32A1,1,0,0,1,12.16,34a2,2,0,0,0,0-4,1,1,0,0,1-.91-1.14,21,21,0,0,1,3.85-9.32,1,1,0,0,1,1.5-.12,2,2,0,0,0,2.82-2.82,1,1,0,0,1,.12-1.5,21,21,0,0,1,9.32-3.85,1,1,0,0,1,.77.21,1,1,0,0,1,.38.7,2,2,0,0,0,4,0,1,1,0,0,1,.38-.7,1,1,0,0,1,.77-.21,21,21,0,0,1,9.32,3.85,1,1,0,0,1,.12,1.5,2,2,0,0,0,2.82,2.82,1,1,0,0,1,1.5.12,21,21,0,0,1,3.85,9.32A1,1,0,0,1,51.84,30a2,2,0,0,0,0,4,1,1,0,0,1,.91,1.14,21,21,0,0,1-3.85,9.32,1,1,0,0,1-1.5.12,2,2,0,0,0-2.82,2.82,1,1,0,0,1-.12,1.5,21,21,0,0,1-9.32,3.85ZM32,48a4,4,0,0,1,3.73,2.61,19,19,0,0,0,6.72-2.76A4,4,0,0,1,42,46a4,4,0,0,1,4-4,4,4,0,0,1,1.84.45,19,19,0,0,0,2.76-6.72,4,4,0,0,1,0-7.47,19,19,0,0,0-2.76-6.72A4,4,0,0,1,46,22a4,4,0,0,1-4-4,4,4,0,0,1,.45-1.84,19,19,0,0,0-6.72-2.76,4,4,0,0,1-7.47,0,19,19,0,0,0-6.72,2.76A4,4,0,0,1,22,18a4,4,0,0,1-4,4,4,4,0,0,1-1.84-.45,19,19,0,0,0-2.76,6.72,4,4,0,0,1,0,7.47,19,19,0,0,0,2.76,6.72A4,4,0,0,1,18,42a4,4,0,0,1,4,4,4,4,0,0,1-.45,1.84,19,19,0,0,0,6.72,2.76A4,4,0,0,1,32,48Z"/><path class="cls-1" d="M32,42A10,10,0,1,1,42,32,10,10,0,0,1,32,42Zm0-18a8,8,0,1,0,8,8A8,8,0,0,0,32,24Z"/><rect class="cls-1" x="47" y="15" width="2" height="2"/><rect class="cls-1" x="47" y="47" width="2" height="2"/><rect class="cls-1" x="31" y="9" width="2" height="2"/><rect class="cls-1" x="31" y="53" width="2" height="2"/><rect class="cls-1" x="15" y="15" width="2" height="2"/><rect class="cls-1" x="9" y="31" width="2" height="2"/><rect class="cls-1" x="53" y="31" width="2" height="2"/><rect class="cls-1" x="15" y="47" width="2" height="2"/><path class="cls-1" d="M32,60A28,28,0,1,1,60,32,28,28,0,0,1,32,60ZM32,6A26,26,0,1,0,58,32,26,26,0,0,0,32,6Z"/><path class="cls-1" d="M32,64A32,32,0,1,1,64,32,32,32,0,0,1,32,64ZM32,2A30,30,0,1,0,62,32,30,30,0,0,0,32,2Z"/></g></g></svg>