<svg xmlns="http://www.w3.org/2000/svg" viewBox="0 0 166.58 166.8"><title>Asset 1</title><g id="Layer_2" data-name="Layer 2"><g id="Layer_1-2" data-name="Layer 1"><path d="M13.91,36.63h0l-.06.09-.06.09h0l-2.47,3.81a26.39,26.39,0,0,0,8.27,9.75l.15.1a72.1,72.1,0,0,0-4.87,11,26.38,26.38,0,0,0-12.67,1l-1,4.44h0l0,.1,0,.1h0L.35,71.5a26.38,26.38,0,0,0,11,5.73,71.53,71.53,0,0,0-.27,12.25A26.32,26.32,0,0,0,0,95.14l.79,4.48h0l0,.1,0,.1h0l.95,4.44a26.23,26.23,0,0,0,12.1,1.14,71.65,71.65,0,0,0,4.52,11.54,26.27,26.27,0,0,0-7.67,9.17l2.44,3.83h0l.06.09.06.09h0l2.58,3.74a26.13,26.13,0,0,0,11.27-3.39,72,72,0,0,0,8.78,9,26.1,26.1,0,0,0-3.42,11.14l3.72,2.61h0l.09.06.08.06h0l3.81,2.47a26.06,26.06,0,0,0,9-7.28,72.05,72.05,0,0,0,11.67,4.93A26,26,0,0,0,62,164.95l4.44,1h0l.1,0,.1,0h0l4.47.82a26.07,26.07,0,0,0,5.51-10.14,71.64,71.64,0,0,0,13.35-.09,25.94,25.94,0,0,0,5.31,9.8l4.48-.79h0l.1,0,.1,0h0l4.44-.95a26,26,0,0,0,1.22-11.36,71.5,71.5,0,0,0,11.63-5,26.15,26.15,0,0,0,9,7.45L130,153.2h0l.09-.06.09-.06h0l3.74-2.58A26.2,26.2,0,0,0,130.41,139a72.12,72.12,0,0,0,8.48-8.89,26.32,26.32,0,0,0,11.83,3.82l2.61-3.72h0l.06-.09.06-.08h0l2.47-3.81a26.39,26.39,0,0,0-8.27-9.75l-.08-.06a72,72,0,0,0,4-10.06h.08a26.39,26.39,0,0,0,12.75-.94l1-4.44h0l0-.1,0-.1h0l.82-4.47a26.39,26.39,0,0,0-11.37-5.84l-.28-.07a71.61,71.61,0,0,0-.1-11.83l.67-.15a26.39,26.39,0,0,0,11.42-5.75l-.79-4.48h0l0-.1,0-.1h0l-.95-4.44a26.39,26.39,0,0,0-12.74-1l-.86.14a71.52,71.52,0,0,0-4.48-10.71l.79-.55a26.39,26.39,0,0,0,8.35-9.68l-2.44-3.83h0l-.06-.09-.06-.09h0l-2.58-3.74a26.39,26.39,0,0,0-12.17,3.91l-.91.57a72.07,72.07,0,0,0-8.16-8.15l.6-.95a26.39,26.39,0,0,0,4-12.14l-3.72-2.61h0l-.09-.06-.08-.06h0L126.4,12a26.39,26.39,0,0,0-9.75,8.27l-.66.93a72.07,72.07,0,0,0-10.17-4.33c.16-.78.3-1.52.41-2.22a26.39,26.39,0,0,0-.94-12.75l-4.44-1h0l-.1,0-.1,0h0L96.17,0a26.39,26.39,0,0,0-5.84,11.37c-.15.63-.3,1.3-.45,2a71.53,71.53,0,0,0-11.82-.18q-.15-.71-.3-1.36A26.39,26.39,0,0,0,72,.43l-4.48.79h0l-.1,0-.1,0h0l-4.44.95a26.39,26.39,0,0,0-1,12.74c.06.38.12.77.2,1.18a71.63,71.63,0,0,0-10.73,4.2l-.58-.83A26.39,26.39,0,0,0,41,11.15L37.2,13.59h0l-.09.06-.09.06h0l-3.74,2.58a26.39,26.39,0,0,0,3.91,12.17l.39.62a72,72,0,0,0-8.49,8.12l-.43-.28a26.39,26.39,0,0,0-12.14-4Z"/></g></g></svg>