<svg xmlns="http://www.w3.org/2000/svg" viewBox="0 0 64 56"><defs><style>.cls-1{fill:#363f40;}</style></defs><title>Asset 1</title><g id="Layer_2" data-name="Layer 2"><g id="icons"><path class="cls-1" d="M31,22H29V10H27V22H25V9a1,1,0,0,1,1-1h4a1,1,0,0,1,1,1Z"/><path class="cls-1" d="M42,12a1,1,0,0,1-.89-.55C39.88,9,35.49,8.21,33,8V9a1,1,0,0,1-1,1H23a1,1,0,0,1-1-1c0-.4-.8-1-2-1s-2,.6-2,1a1,1,0,0,1-1,1H13a1,1,0,0,1-1-1V1a1,1,0,0,1,1-1h4a1,1,0,0,1,1,1c0,.4.8,1,2,1s2-.6,2-1a1,1,0,0,1,1-1h9a1,1,0,0,1,1,1V1c3.94.34,10,2.7,10,10a1,1,0,0,1-.77,1ZM32,6c.27,0,5.22,0,8.53,2.08C38.72,3.07,32.32,3,32,3a1,1,0,0,1-1-1H23.78A4,4,0,0,1,20,4a4,4,0,0,1-3.78-2H14V8h2.22A4,4,0,0,1,20,6a4,4,0,0,1,3.78,2H31V7A1,1,0,0,1,32,6Z"/><rect class="cls-1" x="27" y="24" width="2" height="2"/><rect class="cls-1" x="27" y="28" width="2" height="2"/><rect class="cls-1" x="27" y="32" width="2" height="2"/><path class="cls-1" d="M32,56H22a1,1,0,0,1-1-1V53a1,1,0,0,1,.29-.71L23,50.59V25a5,5,0,0,1,10,0V55A1,1,0,0,1,32,56Zm-9-2h8V25a3,3,0,0,0-6,0V51a1,1,0,0,1-.29.71L23,53.41Z"/><path class="cls-1" d="M50,56a1,1,0,0,1-.55-.17C49.18,55.66,43,51.48,43,47h2c0,2.12,2.23,4.49,4,6V47h2v8a1,1,0,0,1-1,1Z"/><path class="cls-1" d="M56,56a1,1,0,0,1-1-1V47a2,2,0,0,0-2-2H44a1,1,0,0,1-1-1,11.06,11.06,0,0,1,2.71-7.41A4.46,4.46,0,0,0,47,34V5A5,5,0,0,1,57,5V33.31A11.24,11.24,0,0,1,64,44C64,52.73,57.36,56,56,56ZM45,43h8a4,4,0,0,1,4,4v6.55c1.76-1,5-3.88,5-9.55a9.18,9.18,0,0,0-6.28-9A1,1,0,0,1,55,34V5a3,3,0,0,0-6,0V34a6.11,6.11,0,0,1-1.7,3.8A9.18,9.18,0,0,0,45,43Z"/><rect class="cls-1" x="51" y="39" width="4" height="2"/><rect class="cls-1" x="51" y="4" width="2" height="2"/><rect class="cls-1" x="51" y="8" width="2" height="2"/><rect class="cls-1" x="51" y="12" width="2" height="2"/><rect class="cls-1" x="43" y="44" width="2" height="3"/><path class="cls-1" d="M9,56H1a1,1,0,0,1-1-1V36a1,1,0,0,1,.17-.55l1.54-2.32L.29,31.71A1,1,0,0,1,0,31V29a1,1,0,0,1,1-1H9a1,1,0,0,1,1,1v2a1,1,0,0,1-.29.71L8.29,33.13l1.54,2.32A1,1,0,0,1,10,36V55A1,1,0,0,1,9,56ZM2,54H8V36.3L6.17,33.55a1,1,0,0,1,.13-1.26L8,30.59V30H2v.59l1.71,1.71a1,1,0,0,1,.13,1.26L2,36.3Z"/><rect class="cls-1" x="4" y="9" width="2" height="20"/><rect class="cls-1" x="1" y="50" width="8" height="2"/><path class="cls-1" d="M7,10H3A1,1,0,0,1,2,9V1A1,1,0,0,1,3,0H7A1,1,0,0,1,8,1V9A1,1,0,0,1,7,10ZM4,8H6V2H4Z"/><rect class="cls-1" x="4" y="38" width="2" height="2"/><rect class="cls-1" x="4" y="42" width="2" height="2"/><rect class="cls-1" x="4" y="46" width="2" height="2"/></g></g></svg>