<svg xmlns="http://www.w3.org/2000/svg" viewBox="0 0 64 56"><defs><style>.cls-1{fill:#363f40}</style></defs><title>Asset 1</title><g id="Layer_2" data-name="Layer 2"><g id="icons"><path class="cls-1" d="M31 22h-2V10h-2v12h-2V9a1 1 0 0 1 1-1h4a1 1 0 0 1 1 1z"/><path class="cls-1" d="M42 12a1 1 0 0 1-.89-.55C39.88 9 35.49 8.21 33 8v1a1 1 0 0 1-1 1h-9a1 1 0 0 1-1-1c0-.4-.8-1-2-1s-2 .6-2 1a1 1 0 0 1-1 1h-4a1 1 0 0 1-1-1V1a1 1 0 0 1 1-1h4a1 1 0 0 1 1 1c0 .4.8 1 2 1s2-.6 2-1a1 1 0 0 1 1-1h9a1 1 0 0 1 1 1c3.94.34 10 2.7 10 10a1 1 0 0 1-.77 1zM32 6c.27 0 5.22 0 8.53 2.08C38.72 3.07 32.32 3 32 3a1 1 0 0 1-1-1h-7.22A4 4 0 0 1 20 4a4 4 0 0 1-3.78-2H14v6h2.22A4 4 0 0 1 20 6a4 4 0 0 1 3.78 2H31V7a1 1 0 0 1 1-1zm-5 18h2v2h-2zm0 4h2v2h-2zm0 4h2v2h-2z"/><path class="cls-1" d="M32 56H22a1 1 0 0 1-1-1v-2a1 1 0 0 1 .29-.71l1.71-1.7V25a5 5 0 0 1 10 0v30a1 1 0 0 1-1 1zm-9-2h8V25a3 3 0 0 0-6 0v26a1 1 0 0 1-.29.71L23 53.41zm27 2a1 1 0 0 1-.55-.17C49.18 55.66 43 51.48 43 47h2c0 2.12 2.23 4.49 4 6v-6h2v8a1 1 0 0 1-1 1z"/><path class="cls-1" d="M56 56a1 1 0 0 1-1-1v-8a2 2 0 0 0-2-2h-9a1 1 0 0 1-1-1 11.06 11.06 0 0 1 2.71-7.41A4.46 4.46 0 0 0 47 34V5a5 5 0 0 1 10 0v28.31A11.24 11.24 0 0 1 64 44c0 8.73-6.64 12-8 12zM45 43h8a4 4 0 0 1 4 4v6.55c1.76-1 5-3.88 5-9.55a9.18 9.18 0 0 0-6.28-9 1 1 0 0 1-.72-1V5a3 3 0 0 0-6 0v29a6.11 6.11 0 0 1-1.7 3.8A9.18 9.18 0 0 0 45 43z"/><path class="cls-1" d="M51 39h4v2h-4zm0-35h2v2h-2zm0 4h2v2h-2zm0 4h2v2h-2zm-8 32h2v3h-2zM9 56H1a1 1 0 0 1-1-1V36a1 1 0 0 1 .17-.55l1.54-2.32-1.42-1.42A1 1 0 0 1 0 31v-2a1 1 0 0 1 1-1h8a1 1 0 0 1 1 1v2a1 1 0 0 1-.29.71l-1.42 1.42 1.54 2.32A1 1 0 0 1 10 36v19a1 1 0 0 1-1 1zm-7-2h6V36.3l-1.83-2.75a1 1 0 0 1 .13-1.26l1.7-1.7V30H2v.59l1.71 1.71a1 1 0 0 1 .13 1.26L2 36.3z"/><path class="cls-1" d="M4 9h2v20H4zM1 50h8v2H1z"/><path class="cls-1" d="M7 10H3a1 1 0 0 1-1-1V1a1 1 0 0 1 1-1h4a1 1 0 0 1 1 1v8a1 1 0 0 1-1 1zM4 8h2V2H4zm0 30h2v2H4zm0 4h2v2H4zm0 4h2v2H4z"/></g></g></svg>