<svg xmlns="http://www.w3.org/2000/svg" viewBox="0 0 122 92.15"><defs><style>.cls-1{fill:#3e2723}</style></defs><title>Asset 2</title><g id="Layer_2" data-name="Layer 2"><g id="Слой_1" data-name="Слой 1"><path class="cls-1" d="M8 78h9.95v14.15h-4.1V81.49H12.1v10.66H8zm14 14.15V78h9.95v7.58l-5.84 3.24v3.34zm4.1-7.4l1.74-.94v-2.22h-1.78zm9.33 7.4V80.59L38.29 78h7.08v11.55l-2.87 2.6zm4.1-3.88h1.74v-6.68h-1.74zm9.87 3.88V78h3.67l2.57 4.44L58.21 78h3.67v14.15h-4.1v-9.1l-2.13 3.24L53.51 83v9.12zm16.51 0V78h9.95v4.26l-4.1 1.54v-2.3h-1.69v6.88h1.69V86h4.1v6.2zM79.71 78h4.1v7.18l2.36-3.58V78h4.1v14.15h-4.1v-4.7l-3 4.7h-3.46zm18.59 5.35v8.8h-4.1v-9.46L97.77 78h6.37v14.15H100V80.91zm9.76 8.8v-9.46l3.58-4.7H118v14.16h-4.1v-5.48h-1.74v5.48zm5.84-7.78v-3.46l-1.74 2.44v1zM55 68H45V48.89L32.14 68H22V34h10v19.4L45 34h10zm29-26h-8v26H66V42h-7v-8h25zm38 32h-9v-6H88V34h10v25h10V34h10v26h4zM108 6.98h10v22h-10z"/><path class="cls-1" d="M8 20v48h10V30h100V20zM0 0v10h118V0z"/></g></g></svg>