<svg xmlns="http://www.w3.org/2000/svg" viewBox="0 0 64 60"><defs><style>.cls-1{fill:#222829;}</style></defs><title>machine</title><g id="Layer_2" data-name="Layer 2"><g id="icons"><rect class="cls-1" y="58" width="64" height="2"/><rect class="cls-1" y="54" width="64" height="2"/><polygon class="cls-1" points="36 55 34 55 34 46 6 46 6 55 4 55 4 44 36 44 36 55"/><rect class="cls-1" x="14" y="50" width="21" height="2"/><path class="cls-1" d="M20,42a8,8,0,1,1,8-8A8,8,0,0,1,20,42Zm0-14a6,6,0,1,0,6,6A6,6,0,0,0,20,28Z"/><rect class="cls-1" x="26" y="34" width="2" height="11"/><rect class="cls-1" x="4.91" y="39" width="11.18" height="2" transform="translate(-29.97 31.5) rotate(-63.43)"/><rect class="cls-1" x="10" y="50" width="2" height="2"/><path class="cls-1" d="M20,38a4,4,0,1,1,4-4A4,4,0,0,1,20,38Zm0-6a2,2,0,1,0,2,2A2,2,0,0,0,20,32Z"/><circle class="cls-1" cx="11" cy="7" r="2"/><rect class="cls-1" x="19.5" y="9.94" width="2" height="20.12" transform="translate(-6.78 11.28) rotate(-26.57)"/><rect class="cls-1" x="9.5" y="11.71" width="2" height="21.59" transform="translate(-4.93 3.04) rotate(-13.39)"/><polygon class="cls-1" points="50.29 25.71 45.59 21 49 17.59 49 11 51 11 51 18.41 48.41 21 51.71 24.29 50.29 25.71"/><polygon class="cls-1" points="55.71 25.71 54.29 24.29 57.59 21 55 18.41 55 11 57 11 57 17.59 60.41 21 55.71 25.71"/><polygon class="cls-1" points="43 12 16 12 16 10 41 10 41 4 15 4 15 2 43 2 43 12"/><path class="cls-1" d="M53,13a6,6,0,1,1,6-6A6,6,0,0,1,53,13ZM53,3a4,4,0,1,0,4,4A4,4,0,0,0,53,3Z"/><circle class="cls-1" cx="53" cy="7" r="2"/><rect class="cls-1" x="42" y="4" width="6" height="2"/><rect class="cls-1" x="42" y="8" width="6" height="2"/><rect class="cls-1" x="17" y="6" width="25" height="2"/><path class="cls-1" d="M11,14a7,7,0,1,1,7-7A7,7,0,0,1,11,14ZM11,2a5,5,0,1,0,5,5A5,5,0,0,0,11,2Z"/><path class="cls-1" d="M58,44H40V38H58ZM42,42H56V40H42Z"/><rect class="cls-1" x="56" y="46" width="2" height="2"/><rect class="cls-1" x="40" y="50" width="2" height="2"/><polygon class="cls-1" points="62 55 60 55 60 36 30 36 30 34 62 34 62 55"/><rect class="cls-1" x="30" y="38" width="8" height="2"/><polygon class="cls-1" points="58 52 52 52 52 48 50 48 50 52 44 52 44 48 40 48 40 46 46 46 46 50 48 50 48 46 54 46 54 50 58 50 58 52"/><rect class="cls-1" x="50" y="15" width="6" height="2"/></g></g></svg>