<svg xmlns="http://www.w3.org/2000/svg" viewBox="0 0 64 60"><defs><style>.cls-1{fill:#222829}</style></defs><title>machine</title><g id="Layer_2" data-name="Layer 2"><g id="icons"><path class="cls-1" d="M0 58h64v2H0zm0-4h64v2H0z"/><path class="cls-1" d="M36 55h-2v-9H6v9H4V44h32v11z"/><path class="cls-1" d="M14 50h21v2H14zm6-8a8 8 0 1 1 8-8 8 8 0 0 1-8 8zm0-14a6 6 0 1 0 6 6 6 6 0 0 0-6-6z"/><path class="cls-1" d="M26 34h2v11h-2z"/><path class="cls-1" transform="rotate(-63.43 10.501 39.999)" d="M4.91 39h11.18v2H4.91z"/><path class="cls-1" d="M10 50h2v2h-2zm10-12a4 4 0 1 1 4-4 4 4 0 0 1-4 4zm0-6a2 2 0 1 0 2 2 2 2 0 0 0-2-2z"/><circle class="cls-1" cx="11" cy="7" r="2"/><path class="cls-1" transform="rotate(-26.57 20.497 19.997)" d="M19.5 9.94h2v20.12h-2z"/><path class="cls-1" transform="rotate(-13.39 10.484 22.52)" d="M9.5 11.71h2V33.3h-2z"/><path class="cls-1" d="M50.29 25.71L45.59 21 49 17.59V11h2v7.41L48.41 21l3.3 3.29-1.42 1.42zm5.42 0l-1.42-1.42 3.3-3.29L55 18.41V11h2v6.59L60.41 21l-4.7 4.71zM43 12H16v-2h25V4H15V2h28v10z"/><path class="cls-1" d="M53 13a6 6 0 1 1 6-6 6 6 0 0 1-6 6zm0-10a4 4 0 1 0 4 4 4 4 0 0 0-4-4z"/><circle class="cls-1" cx="53" cy="7" r="2"/><path class="cls-1" d="M42 4h6v2h-6zm0 4h6v2h-6zM17 6h25v2H17z"/><path class="cls-1" d="M11 14a7 7 0 1 1 7-7 7 7 0 0 1-7 7zm0-12a5 5 0 1 0 5 5 5 5 0 0 0-5-5zm47 42H40v-6h18zm-16-2h14v-2H42zm14 4h2v2h-2zm-16 4h2v2h-2z"/><path class="cls-1" d="M62 55h-2V36H30v-2h32v21z"/><path class="cls-1" d="M30 38h8v2h-8zm28 14h-6v-4h-2v4h-6v-4h-4v-2h6v4h2v-4h6v4h4v2zm-8-37h6v2h-6z"/></g></g></svg>