<svg xmlns="http://www.w3.org/2000/svg" viewBox="0 0 64 64"><defs><style>.cls-1{fill:#363f40}</style></defs><title>Asset 1</title><g id="Layer_2" data-name="Layer 2"><g id="icons"><path class="cls-1" d="M2 64H0V52c0-7.14 6.24-10.14 11.68-11.95l8.32-3.7V32h2v5a1 1 0 0 1-.59.91l-9 4C5.09 44.36 2 47.37 2 52z"/><path class="cls-1" d="M10 42h2v22h-2zm17-7c-7.79 0-10.83-7.54-11-12.58l-.71-.71A1 1 0 0 1 15 21v-2h2v1.59l.71.71a1 1 0 0 1 .29.7c0 4.25 2.44 11 9 11s9-6.75 9-11a1 1 0 0 1 .29-.71l.71-.71V19h2v2a1 1 0 0 1-.29.71l-.71.71C37.83 27.46 34.79 35 27 35zm0 10a1 1 0 0 1-.76-.35l-6-7 1.52-1.3L27 42.46l5.24-6.11 1.52 1.3-6 7A1 1 0 0 1 27 45zm0-26c-7.27 0-15-2.1-15-6h2c0 1.63 5.06 4 13 4s13-2.37 13-4h2c0 3.9-7.73 6-15 6zm13-6h-2a11 11 0 0 0-22 0h-2a13 13 0 0 1 26 0z"/><path class="cls-1" d="M30 5h-2a4 4 0 0 1 4-4v2a2 2 0 0 0-2 2zm-2 0h2v8h-2zm-2 0h-2a2 2 0 0 0-2-2V1a4 4 0 0 1 4 4zm-2 0h2v8h-2zm-8 34h2v25h-2zm22 25h-2V39.62l-3.45-1.72A1 1 0 0 1 32 37v-5h2v4.38l3.45 1.72a1 1 0 0 1 .55.9zm26 0H40V31h4v2h-2v29h20V33h-2v-2h4v33z"/><path class="cls-1" d="M58 35H46v-6h12zm-10-2h8v-2h-8zm0 4h12v2H48zm-4 0h2v2h-2zm4 4h12v2H48zm-4 0h2v2h-2zm4 4h12v2H48zm-4 0h2v2h-2zm4 4h12v2H48zm-4 0h2v2h-2zm11 7h5v2h-5zm-29-9h2v2h-2zm0 4h2v2h-2zm0 4h2v2h-2z"/></g></g></svg>