<svg xmlns="http://www.w3.org/2000/svg" viewBox="0 0 64 60"><defs><style>.cls-1{fill:#363f40;}</style></defs><title>map</title><g id="Layer_2" data-name="Layer 2"><g id="icons"><path class="cls-1" d="M63,60a1,1,0,0,1-.5-.13L49.92,52.67l1-1.74L62,57.28V13.58L42,2.16l-19.5,11.7a1,1,0,0,1-1,0L2,2.72v43.7L22,57.84,33.35,51l1,1.71L22.51,59.86a1,1,0,0,1-1,0l-21-12A1,1,0,0,1,0,47V1A1,1,0,0,1,1.5.13L22,11.84,41.49.14a1,1,0,0,1,1,0l21,12A1,1,0,0,1,64,13V59a1,1,0,0,1-1,1Z"/><rect class="cls-1" x="21" y="13" width="2" height="46"/><rect class="cls-1" x="41" y="1" width="2" height="23"/><path class="cls-1" d="M42,60a1,1,0,0,1-.89-.55C40.73,58.7,32,41.15,32,36a10,10,0,0,1,20,0c0,5.15-8.73,22.7-9.11,23.45A1,1,0,0,1,42,60Zm0-32a8,8,0,0,0-8,8c0,3.48,5.15,14.83,8,20.73,2.85-5.9,8-17.25,8-20.73A8,8,0,0,0,42,28Z"/><path class="cls-1" d="M42,42a6,6,0,1,1,6-6A6,6,0,0,1,42,42Zm0-10a4,4,0,1,0,4,4A4,4,0,0,0,42,32Z"/><path class="cls-1" d="M18,53a1,1,0,0,1-.52-.15l-13-8A1,1,0,0,1,4,44V8a1,1,0,0,1,1.52-.85l13,8A1,1,0,0,1,19,16V52a1,1,0,0,1-1,1ZM6,43.44l11,6.77V16.56L6,9.79Z"/><rect class="cls-1" x="10" y="25" width="2" height="2"/><rect class="cls-1" x="10" y="29" width="2" height="2"/><rect class="cls-1" x="10" y="33" width="2" height="2"/></g></g></svg>