<svg xmlns="http://www.w3.org/2000/svg" viewBox="0 0 64 60"><defs><style>.cls-1{fill:#363f40}</style></defs><title>map</title><g id="Layer_2" data-name="Layer 2"><g id="icons"><path class="cls-1" d="M63 60a1 1 0 0 1-.5-.13l-12.58-7.2 1-1.74L62 57.28v-43.7L42 2.16l-19.5 11.7a1 1 0 0 1-1 0L2 2.72v43.7l20 11.42L33.35 51l1 1.71-11.84 7.15a1 1 0 0 1-1 0l-21-12A1 1 0 0 1 0 47V1A1 1 0 0 1 1.5.13L22 11.84 41.49.14a1 1 0 0 1 1 0l21 12A1 1 0 0 1 64 13v46a1 1 0 0 1-1 1z"/><path class="cls-1" d="M21 13h2v46h-2zM41 1h2v23h-2zm1 59a1 1 0 0 1-.89-.55C40.73 58.7 32 41.15 32 36a10 10 0 0 1 20 0c0 5.15-8.73 22.7-9.11 23.45A1 1 0 0 1 42 60zm0-32a8 8 0 0 0-8 8c0 3.48 5.15 14.83 8 20.73 2.85-5.9 8-17.25 8-20.73a8 8 0 0 0-8-8z"/><path class="cls-1" d="M42 42a6 6 0 1 1 6-6 6 6 0 0 1-6 6zm0-10a4 4 0 1 0 4 4 4 4 0 0 0-4-4zM18 53a1 1 0 0 1-.52-.15l-13-8A1 1 0 0 1 4 44V8a1 1 0 0 1 1.52-.85l13 8A1 1 0 0 1 19 16v36a1 1 0 0 1-1 1zM6 43.44l11 6.77V16.56L6 9.79z"/><path class="cls-1" d="M10 25h2v2h-2zm0 4h2v2h-2zm0 4h2v2h-2z"/></g></g></svg>