<svg xmlns="http://www.w3.org/2000/svg" viewBox="0 0 56 64"><defs><style>.cls-1{fill:#363f40;}</style></defs><title>Asset 1</title><g id="Layer_2" data-name="Layer 2"><g id="icons"><rect class="cls-1" x="44" y="55" width="2" height="9"/><path class="cls-1" d="M46,31H44V15a1,1,0,0,1,1-1h8.38l-1-2H47a1,1,0,0,1-1-1V2H27.21L12,8.65V10H31a1,1,0,0,1,1,1V31H30V12H11a1,1,0,0,1-1-1V8a1,1,0,0,1,.6-.92l16-7A1,1,0,0,1,27,0H47a1,1,0,0,1,1,1v9h5a1,1,0,0,1,.89.55l2,4A1,1,0,0,1,55,16H46Z"/><rect class="cls-1" x="30" y="55" width="2" height="9"/><path class="cls-1" d="M33,56H27a1,1,0,0,1-1-1V45a1,1,0,0,1,.29-.71L28,42.59V41H25a1,1,0,0,1-.39-.08l-14-6A1,1,0,0,1,10,34V31a1,1,0,0,1,1-1H33a1,1,0,0,1,1,1V55A1,1,0,0,1,33,56Zm-5-2h4V32H12v1.34L25.21,39H29a1,1,0,0,1,1,1v3a1,1,0,0,1-.29.71L28,45.41Z"/><path class="cls-1" d="M47,56H43a1,1,0,0,1-1-1V31a1,1,0,0,1,1-1H55a1,1,0,0,1,.89,1.45l-2,4A1,1,0,0,1,53,36H48V55A1,1,0,0,1,47,56Zm-3-2h2V35a1,1,0,0,1,1-1h5.38l1-2H44Z"/><rect class="cls-1" x="37" y="12" width="2" height="2"/><rect class="cls-1" x="37" y="16" width="2" height="2"/><rect class="cls-1" x="37" y="20" width="2" height="2"/><rect class="cls-1" x="37" y="24" width="2" height="2"/><rect class="cls-1" x="37" y="28" width="2" height="2"/><rect class="cls-1" x="37" y="32" width="2" height="2"/><rect class="cls-1" x="37" y="36" width="2" height="2"/><rect class="cls-1" x="37" y="40" width="2" height="2"/><rect class="cls-1" x="37" y="44" width="2" height="2"/><rect class="cls-1" x="37" y="48" width="2" height="2"/><rect class="cls-1" x="37" y="52" width="2" height="2"/><rect class="cls-1" x="37" y="56" width="2" height="2"/><rect class="cls-1" x="37" y="60" width="2" height="2"/><path class="cls-1" d="M11,32A11,11,0,1,1,22,21,11,11,0,0,1,11,32Zm0-20a9,9,0,1,0,9,9A9,9,0,0,0,11,12Z"/><path class="cls-1" d="M11,27a6,6,0,1,1,6-6A6,6,0,0,1,11,27Zm0-10a4,4,0,1,0,4,4A4,4,0,0,0,11,17Z"/></g></g></svg>