<svg xmlns="http://www.w3.org/2000/svg" viewBox="0 0 56 64"><defs><style>.cls-1{fill:#363f40}</style></defs><title>Asset 1</title><g id="Layer_2" data-name="Layer 2"><g id="icons"><path class="cls-1" d="M44 55h2v9h-2zm2-24h-2V15a1 1 0 0 1 1-1h8.38l-1-2H47a1 1 0 0 1-1-1V2H27.21L12 8.65V10h19a1 1 0 0 1 1 1v20h-2V12H11a1 1 0 0 1-1-1V8a1 1 0 0 1 .6-.92l16-7A1 1 0 0 1 27 0h20a1 1 0 0 1 1 1v9h5a1 1 0 0 1 .89.55l2 4A1 1 0 0 1 55 16h-9zM30 55h2v9h-2z"/><path class="cls-1" d="M33 56h-6a1 1 0 0 1-1-1V45a1 1 0 0 1 .29-.71l1.71-1.7V41h-3a1 1 0 0 1-.39-.08l-14-6A1 1 0 0 1 10 34v-3a1 1 0 0 1 1-1h22a1 1 0 0 1 1 1v24a1 1 0 0 1-1 1zm-5-2h4V32H12v1.34L25.21 39H29a1 1 0 0 1 1 1v3a1 1 0 0 1-.29.71L28 45.41zm19 2h-4a1 1 0 0 1-1-1V31a1 1 0 0 1 1-1h12a1 1 0 0 1 .89 1.45l-2 4A1 1 0 0 1 53 36h-5v19a1 1 0 0 1-1 1zm-3-2h2V35a1 1 0 0 1 1-1h5.38l1-2H44zm-7-42h2v2h-2zm0 4h2v2h-2zm0 4h2v2h-2zm0 4h2v2h-2zm0 4h2v2h-2zm0 4h2v2h-2zm0 4h2v2h-2zm0 4h2v2h-2zm0 4h2v2h-2zm0 4h2v2h-2zm0 4h2v2h-2zm0 4h2v2h-2zm0 4h2v2h-2z"/><path class="cls-1" d="M11 32a11 11 0 1 1 11-11 11 11 0 0 1-11 11zm0-20a9 9 0 1 0 9 9 9 9 0 0 0-9-9z"/><path class="cls-1" d="M11 27a6 6 0 1 1 6-6 6 6 0 0 1-6 6zm0-10a4 4 0 1 0 4 4 4 4 0 0 0-4-4z"/></g></g></svg>