<svg xmlns="http://www.w3.org/2000/svg" viewBox="0 0 64 52"><defs><style>.cls-1{fill:#363f40;}</style></defs><title>money</title><g id="Layer_2" data-name="Layer 2"><g id="icons"><path class="cls-1" d="M10,36H4a4,4,0,0,1-4-4V4A4,4,0,0,1,4,0H52a4,4,0,0,1,4,4v8H54V4a2,2,0,0,0-2-2H4A2,2,0,0,0,2,4V32a2,2,0,0,0,2,2h6Z"/><rect class="cls-1" x="1" y="4" width="54" height="2"/><rect class="cls-1" x="1" y="14" width="9" height="2"/><rect class="cls-1" x="4" y="22" width="6" height="2"/><rect class="cls-1" x="40" y="8" width="10" height="2"/><rect class="cls-1" x="34" y="8" width="4" height="2"/><path class="cls-1" d="M64,52H16a4,4,0,0,1-4-4V18a4,4,0,0,1,4-4H56v4H54V16H16a2,2,0,0,0,0,4H64ZM14,21.46V48a2,2,0,0,0,2,2H62V22H16A4,4,0,0,1,14,21.46Z"/><path class="cls-1" d="M56,48H16V46H54.1A5,5,0,0,1,58,42.1V29.9A5,5,0,0,1,54.1,26H16V24H56v1a3,3,0,0,0,3,3h1V44H59a3,3,0,0,0-3,3Z"/><path class="cls-1" d="M16,48V46a10,10,0,0,0,0-20V24a12,12,0,0,1,0,24Z"/><polygon class="cls-1" points="39 41 37 41 37 33 36 33 36 31 39 31 39 41"/><path class="cls-1" d="M45,41H43a2,2,0,0,1-2-2V33a2,2,0,0,1,2-2h2a2,2,0,0,1,2,2v6A2,2,0,0,1,45,41Zm-2-8v6h2V33Z"/><rect class="cls-1" x="49" y="35" width="2" height="2"/><rect class="cls-1" x="32" y="35" width="2" height="2"/></g></g></svg>