<svg xmlns="http://www.w3.org/2000/svg" viewBox="0 0 64 52"><defs><style>.cls-1{fill:#363f40}</style></defs><title>money</title><g id="Layer_2" data-name="Layer 2"><g id="icons"><path class="cls-1" d="M10 36H4a4 4 0 0 1-4-4V4a4 4 0 0 1 4-4h48a4 4 0 0 1 4 4v8h-2V4a2 2 0 0 0-2-2H4a2 2 0 0 0-2 2v28a2 2 0 0 0 2 2h6z"/><path class="cls-1" d="M1 4h54v2H1zm0 10h9v2H1zm3 8h6v2H4zM40 8h10v2H40zm-6 0h4v2h-4zm30 44H16a4 4 0 0 1-4-4V18a4 4 0 0 1 4-4h40v4h-2v-2H16a2 2 0 0 0 0 4h48zM14 21.46V48a2 2 0 0 0 2 2h46V22H16a4 4 0 0 1-2-.54z"/><path class="cls-1" d="M56 48H16v-2h38.1a5 5 0 0 1 3.9-3.9V29.9a5 5 0 0 1-3.9-3.9H16v-2h40v1a3 3 0 0 0 3 3h1v16h-1a3 3 0 0 0-3 3z"/><path class="cls-1" d="M16 48v-2a10 10 0 0 0 0-20v-2a12 12 0 0 1 0 24zm23-7h-2v-8h-1v-2h3v10zm6 0h-2a2 2 0 0 1-2-2v-6a2 2 0 0 1 2-2h2a2 2 0 0 1 2 2v6a2 2 0 0 1-2 2zm-2-8v6h2v-6zm6 2h2v2h-2zm-17 0h2v2h-2z"/></g></g></svg>