<svg xmlns="http://www.w3.org/2000/svg" viewBox="0 0 52 64"><title>paint</title><g data-name="Layer 2"><path d="M41 36a4 4 0 0 1-4-4v-9a1 1 0 0 0-2 0 4 4 0 0 1-8 0 1 1 0 0 0-2 0v3a4 4 0 0 1-8 0 2 2 0 0 0-4 0v5a3 3 0 0 1-6 0V16h2v15a1 1 0 0 0 2 0v-5a4 4 0 0 1 8 0 2 2 0 0 0 4 0v-3a3 3 0 0 1 6 0 2 2 0 0 0 4 0 3 3 0 0 1 6 0v9a2 2 0 0 0 4 0V16h2v16a4 4 0 0 1-4 4zM30 64h-8a1 1 0 0 1-1-1V46a1 1 0 0 1 .17-.55l1.54-2.32-1.42-1.42A1 1 0 0 1 21 41v-2a1 1 0 0 1 1-1h8a1 1 0 0 1 1 1v2a1 1 0 0 1-.29.71l-1.42 1.42 1.54 2.32A1 1 0 0 1 31 46v17a1 1 0 0 1-1 1zm-7-2h6V46.3l-1.83-2.75a1 1 0 0 1 .13-1.26l1.7-1.7V40h-6v.59l1.71 1.71a1 1 0 0 1 .13 1.26L23 46.3zM5 10H1a1 1 0 0 1-1-1V5a1 1 0 0 1 1-1h4a1 1 0 0 1 1 1v4a1 1 0 0 1-1 1zM2 8h2V6H2z"/><path d="M45 14H7a3 3 0 0 1-3-3V3a3 3 0 0 1 3-3h38a3 3 0 0 1 3 3v8a3 3 0 0 1-3 3zM7 2a1 1 0 0 0-1 1v8a1 1 0 0 0 1 1h38a1 1 0 0 0 1-1V3a1 1 0 0 0-1-1z"/><path d="M27 39h-2v-5a1 1 0 0 1 .46-.84L50 17.45V9a1 1 0 0 0-1-1h-2V6h2a3 3 0 0 1 3 3v9a1 1 0 0 1-.46.84L27 34.55zm-5 19h8v2h-8zM21 6h2v2h-2zm4 0h2v2h-2zm4 0h2v2h-2z"/></g></svg>