<svg xmlns="http://www.w3.org/2000/svg" viewBox="0 0 52 64"><title>paint</title><g id="Layer_2" data-name="Layer 2"><g id="icons"><path d="M41,36a4,4,0,0,1-4-4V23a1,1,0,0,0-2,0,4,4,0,0,1-8,0,1,1,0,0,0-2,0v3a4,4,0,0,1-8,0,2,2,0,0,0-4,0v5a3,3,0,0,1-6,0V16H9V31a1,1,0,0,0,2,0V26a4,4,0,0,1,8,0,2,2,0,0,0,4,0V23a3,3,0,0,1,6,0,2,2,0,0,0,4,0,3,3,0,0,1,6,0v9a2,2,0,0,0,4,0V16h2V32A4,4,0,0,1,41,36Z"/><path d="M30,64H22a1,1,0,0,1-1-1V46a1,1,0,0,1,.17-.55l1.54-2.32-1.42-1.42A1,1,0,0,1,21,41V39a1,1,0,0,1,1-1h8a1,1,0,0,1,1,1v2a1,1,0,0,1-.29.71l-1.42,1.42,1.54,2.32A1,1,0,0,1,31,46V63A1,1,0,0,1,30,64Zm-7-2h6V46.3l-1.83-2.75a1,1,0,0,1,.13-1.26L29,40.59V40H23v.59l1.71,1.71a1,1,0,0,1,.13,1.26L23,46.3Z"/><path d="M5,10H1A1,1,0,0,1,0,9V5A1,1,0,0,1,1,4H5A1,1,0,0,1,6,5V9A1,1,0,0,1,5,10ZM2,8H4V6H2Z"/><path d="M45,14H7a3,3,0,0,1-3-3V3A3,3,0,0,1,7,0H45a3,3,0,0,1,3,3v8A3,3,0,0,1,45,14ZM7,2A1,1,0,0,0,6,3v8a1,1,0,0,0,1,1H45a1,1,0,0,0,1-1V3a1,1,0,0,0-1-1Z"/><path d="M27,39H25V34a1,1,0,0,1,.46-.84L50,17.45V9a1,1,0,0,0-1-1H47V6h2a3,3,0,0,1,3,3v9a1,1,0,0,1-.46.84L27,34.55Z"/><rect x="22" y="58" width="8" height="2"/><rect x="21" y="6" width="2" height="2"/><rect x="25" y="6" width="2" height="2"/><rect x="29" y="6" width="2" height="2"/></g></g></svg>