<svg xmlns="http://www.w3.org/2000/svg" viewBox="0 0 60 64"><defs><style>.cls-1{fill:#222829}</style></defs><title>Asset 1</title><g id="Layer_2" data-name="Layer 2"><g id="icons"><path class="cls-1" d="M22 30h2v7h-2zm2 30h-2v-8h6v2h-4v6zm-6 3h-2v-2.41l2-2V33h2v26.41l-2 2V63z"/><path class="cls-1" d="M22 29h16v2H22zm1 14h5v2h-5z"/><path class="cls-1" d="M24 50h-2V39h6v2h-4v9zm-5 6h-5V41h5v2h-3v11h3v2zm17-26h2v7h-2zm2 30h-2v-6h-4v-2h6v8zm6 3h-2v-1.59l-2-2V33h2v25.59l2 2V63zM32 43h5v2h-5z"/><path class="cls-1" d="M38 50h-2v-9h-4v-2h6v11zm8 6h-5v-2h3V43h-3v-2h5v15zM19 34a4 4 0 1 1 4-4 4 4 0 0 1-4 4zm0-6a2 2 0 1 0 2 2 2 2 0 0 0-2-2zM9 12a4 4 0 1 1 4-4 4 4 0 0 1-4 4zm0-6a2 2 0 1 0 2 2 2 2 0 0 0-2-2zm42 6a4 4 0 1 1 4-4 4 4 0 0 1-4 4zm0-6a2 2 0 1 0 2 2 2 2 0 0 0-2-2zM41 34a4 4 0 1 1 4-4 4 4 0 0 1-4 4zm0-6a2 2 0 1 0 2 2 2 2 0 0 0-2-2z"/><path class="cls-1" d="M20 27h-2v-2.41l5-5V9h2v11.41l-5 5V27zm22 0h-2v-1.59l-5-5V9h2v10.59l5 5V27zM9 4h42v2H9z"/><path class="cls-1" d="M15 8h30v2H15zm14 9h2v13h-2zm21-6h2v13h-2zM37 5h-2V2H25v3h-2V2a2 2 0 0 1 2-2h10a2 2 0 0 1 2 2z"/><path class="cls-1" d="M40 18H20a2 2 0 0 1-2-2v-2a2 2 0 0 1 2-2h20a2 2 0 0 1 2 2v2a2 2 0 0 1-2 2zm-20-4v2h20v-2zm13 13h2v3h-2zm-8 0h2v3h-2zm29 10h-6V23h6zm-4-2h2V25h-2zM8 11h2v13H8z"/><path class="cls-1" d="M12 37H6V23h6zm-4-2h2V25H8zm42 1h2v3h-2z"/><path class="cls-1" d="M8 36h2v3H8zM0 62h28v2H0zm32 0h28v2H32zM9 19h3v2H9zm39 0h3v2h-3z"/></g></g></svg>