<svg xmlns="http://www.w3.org/2000/svg" viewBox="0 0 64 52"><defs><style>.cls-1{fill:#363f40}</style></defs><title>wood</title><g id="Layer_2" data-name="Layer 2"><g id="icons"><path class="cls-1" d="M59 26h-1a1 1 0 0 1-.71-.29L55 23.41l-2.29 2.29a1 1 0 0 1-1.41 0L49 23.41l-2.29 2.29a1 1 0 0 1-1.41 0L43 23.41l-2.29 2.29a1 1 0 0 1-1.41 0L37 23.41l-2.29 2.29a1 1 0 0 1-1.41 0L31 23.41l-2.29 2.29a1 1 0 0 1-1.41 0L25 23.41l-2.29 2.29a1 1 0 0 1-1.41 0L19 23.41l-2.29 2.29a1 1 0 0 1-.71.3h-2a1 1 0 0 1-1-1v-3.2L.77 19A1 1 0 0 1 0 17.76l1-4A1 1 0 0 1 2 13h1.35L6.7 5.47 5.55 4.9a1 1 0 0 1-.5-1.21l1-3A1 1 0 0 1 7.24 0l56 14a1 1 0 0 1 .69 1.34l-4 10A1 1 0 0 1 59 26zm-44-2h.59l2.71-2.71a1 1 0 0 1 1.41 0l2.29 2.3 2.29-2.29a1 1 0 0 1 1.41 0l2.3 2.29 2.29-2.29a1 1 0 0 1 1.41 0l2.3 2.29 2.29-2.29a1 1 0 0 1 1.41 0l2.3 2.29 2.29-2.29a1 1 0 0 1 1.41 0l2.3 2.29 2.29-2.29a1 1 0 0 1 1.41 0l2.3 2.29 2.29-2.29a1 1 0 0 1 1.41 0l2.64 2.64 3.3-8.24L7.66 2.2l-.43 1.3 1.22.61a1 1 0 0 1 .47 1.3l-4 9A1 1 0 0 1 4 15H2.78l-.56 2.25 12 2.77A1 1 0 0 1 15 21z"/><path class="cls-1" d="M14.45 21.9l-.89-1.79 5.67-2.83 4.85-11.66 1.85.77-5 12a1 1 0 0 1-.48.51zM13 17h-.2l-5-1a1 1 0 0 1-.7-1.43l4-8A1 1 0 0 1 12.27 6l7 2a1 1 0 0 1 .62 1.41l-3 6a1 1 0 0 1-.58.5l-3 1A1 1 0 0 1 13 17zm-3.52-2.72l3.46.69 2.36-.79 2.28-4.55-5-1.44zM49 28h2v2h-2zm4 0h2v2h-2zm4 0h2v2h-2z"/><path class="cls-1" d="M64 34H0v-6h11v2H2v2h60v-2h-1v-2h3v6zm0 6H0v-4h2v2h60v-2h2v4zm0 6H0v-4h2v2h60v-2h2v4zm0 6H0v-4h2v2h60v-2h2v4z"/><path class="cls-1" d="M37 28h2v2h-2zm4 0h2v2h-2zm4 0h2v2h-2zm-20 0h2v2h-2zm4 0h2v2h-2zm4 0h2v2h-2zm-20 0h2v2h-2zm4 0h2v2h-2zm4 0h2v2h-2z"/></g></g></svg>